<?xml version="1.0"?>
<svg version="1.1" xmlns="http://www.w3.org/2000/svg" width="400px" height="200px" style=""><path fill="#14a64e" d="M51.51904296875,109.83642578125q0-4.283203125,0.236572265625-8.466796875t0.585205078125-8.466796875q0.099609375-1.12060546875,0.12451171875-2.16650390625t0.236572265625-1.830322265625t0.7470703125-1.2451171875t1.656005859375-0.460693359375q0.72216796875,0,1.506591796875,0.2490234375t0.784423828125,1.17041015625q0,3.46142578125-0.286376953125,6.810791015625t-0.385986328125,6.661376953125q2.71435546875-3.06298828125,5.80224609375-5.715087890625t6.54931640625-5.241943359375q0.498046875-0.3486328125,1.27001953125-0.37353515625q0.2490234375,0,0.435791015625,0.02490234375t0.385986328125,0.07470703125q0.2490234375,0.099609375,0.510498046875,0.236572265625t0.261474609375,0.385986328125q0,0.19921875-0.22412109375,0.3486328125q-2.58984375,2.091796875-5.117431640625,4.25830078125t-4.818603515625,4.6318359375q0.298828125,0.57275390625,0.510498046875,1.07080078125t0.460693359375,1.07080078125q2.091796875,4.95556640625,3.573486328125,10.147705078125t3.150146484375,10.297119140625q0.1494140625,0.57275390625,0.435791015625,1.182861328125t0.535400390625,1.22021484375t0.435791015625,1.1455078125t0.186767578125,0.884033203125q0,0.4482421875-0.286376953125,0.709716796875t-0.659912109375,0.410888671875t-0.809326171875,0.19921875t-0.809326171875,0.0498046875q-0.87158203125,0-1.556396484375-0.2490234375t-1.083251953125-1.12060546875q-1.8427734375-5.876953125-3.548583984375-11.75390625t-3.448974609375-11.853515625q-0.57275390625,0.57275390625-1.1455078125,1.431884765625t-1.0458984375,1.581298828125q0,3.7353515625,0.17431640625,7.4208984375t0.59765625,7.4208984375q0.099609375,1.07080078125,0.336181640625,2.1416015625t0.236572265625,2.19140625q0,0.82177734375-0.8466796875,1.1455078125t-1.86767578125,0.32373046875q-1.12060546875,0-1.680908203125-0.22412109375t-0.796875-0.585205078125t-0.286376953125-0.796875t-0.1494140625-0.834228515625q-0.57275390625-3.9345703125-0.72216796875-7.781982421875t-0.1494140625-7.732177734375z M77.035727539062,93.923828125q0-1.17041015625,0.062255859375-2.31591796875t0.211669921875-2.26611328125q0.099609375-0.57275390625,0.884033203125-0.82177734375t1.307373046875-0.2490234375l0.59765625,0.0498046875q0.72216796875,0.099609375,1.456787109375-0.099609375t1.456787109375-0.19921875q1.693359375,0,3.78515625,0.37353515625t3.922119140625,1.27001953125t3.075439453125,2.353271484375t1.2451171875,3.598388671875t-1.294921875,3.996826171875t-3.26220703125,3.26220703125t-4.2333984375,2.203857421875t-4.15869140625,0.796875q0.19921875,4.80615234375,0.560302734375,9.53759765625t1.232666015625,9.462890625l0.0498046875,0.32373046875q0,0.3486328125-0.311279296875,0.57275390625t-0.734619140625,0.361083984375t-0.859130859375,0.186767578125t-0.709716796875,0.0498046875q-0.62255859375,0-1.506591796875-0.236572265625t-1.083251953125-0.933837890625q-0.57275390625-2.19140625-0.896484375-4.818603515625t-0.47314453125-5.490966796875t-0.211669921875-5.764892578125t-0.062255859375-5.665283203125l0-5.60302734375q0-0.92138671875-0.02490234375-1.91748046875t-0.02490234375-2.01708984375z M81.742270507812,89.8896484375q0,3.41162109375,0.07470703125,6.810791015625t0.17431640625,6.810791015625q1.46923828125-0.298828125,3.000732421875-1.058349609375t2.76416015625-1.805419921875t1.9921875-2.378173828125t0.759521484375-2.801513671875q0-1.31982421875-0.659912109375-2.36572265625t-1.705810546875-1.79296875q-1.02099609375-0.72216796875-2.31591796875-1.12060546875q-1.1455078125-0.3486328125-2.2412109375-0.3486328125l-0.27392578125,0z M109.89038574219,112.7001953125l0-3.9345703125q0-4.083984375,0.136962890625-8.105712890625t0.236572265625-8.105712890625q0-0.77197265625-0.0498046875-1.71826171875q-0.02490234375-0.27392578125-0.02490234375-0.52294921875q0-0.62255859375,0.099609375-1.22021484375q0.12451171875-0.796875,0.610107421875-1.36962890625t1.606201171875-0.57275390625q0.92138671875,0,1.406982421875,0.19921875t0.684814453125,0.585205078125t0.22412109375,0.97119140625t0.02490234375,1.357177734375q0,4.1337890625-0.099609375,8.29248046875q-0.07470703125,2.76416015625-0.07470703125,5.5283203125q0,1.39453125,0.02490234375,2.7890625q0.0498046875,4.1337890625,0.385986328125,8.267578125t1.133056640625,8.16796875q2.490234375-0.099609375,4.98046875-0.2490234375t4.98046875-0.1494140625q0.2490234375,0,0.709716796875,0.0498046875t0.92138671875,0.17431640625t0.784423828125,0.32373046875t0.32373046875,0.57275390625q0,0.2490234375-0.22412109375,0.42333984375t-0.42333984375,0.27392578125l-0.0498046875,0q-0.3984375,0.19921875-1.581298828125,0.385986328125t-2.689453125,0.286376953125t-3.16259765625,0.17431640625t-3.11279296875,0.12451171875t-2.527587890625,0.07470703125t-1.31982421875,0.02490234375l-0.22412109375,0q-0.59765625,0-1.3447265625-0.19921875q-0.896484375-0.2490234375-1.12060546875-0.97119140625q-0.4482421875-1.8427734375-0.709716796875-3.822509765625t-0.3984375-4.021728515625t-0.136962890625-4.083984375z M132.49349609375,116.21142578125q0-1.693359375,0.460693359375-3.26220703125t1.382080078125-2.801513671875t2.303466796875-1.96728515625t3.199951171875-0.734619140625q1.12060546875,0,2.477783203125,0.336181640625t2.552490234375,0.99609375t1.9921875,1.680908203125t0.796875,2.3408203125q0,0.62255859375-0.211669921875,0.9462890625t-0.859130859375,0.32373046875l-0.27392578125-0.0498046875q0.72216796875,1.9423828125,1.2451171875,3.984375t1.02099609375,4.083984375q0.19921875,0.3984375,0.298828125,0.709716796875t0.099609375,0.610107421875q0,0.3984375-0.22412109375,0.659912109375t-0.585205078125,0.385986328125t-0.7470703125,0.17431640625t-0.684814453125,0.0498046875q-1.07080078125,0-1.606201171875-0.37353515625t-0.77197265625-1.02099609375t-0.286376953125-1.456787109375t-0.19921875-1.631103515625q-0.298828125,0.97119140625-0.784423828125,1.892578125t-1.1455078125,1.656005859375t-1.556396484375,1.17041015625t-2.01708984375,0.435791015625q-1.6435546875,0-2.76416015625-0.9462890625t-1.805419921875-2.328369140625t-0.99609375-2.950927734375t-0.311279296875-2.91357421875z M136.02962890625,115.86279296875q0,0.92138671875,0.12451171875,1.9423828125t0.410888671875,2.01708984375t0.734619140625,1.880126953125t1.12060546875,1.556396484375q1.22021484375-1.31982421875,1.805419921875-3.21240234375t1.0458984375-3.648193359375t1.0458984375-3.01318359375t1.805419921875-1.257568359375q0.77197265625,0,1.294921875,0.27392578125q-0.2490234375-0.62255859375-0.82177734375-1.207763671875t-1.282470703125-1.07080078125t-1.46923828125-0.796875t-1.431884765625-0.311279296875q-0.19921875,0-0.460693359375,0.062255859375t-0.410888671875,0.012451171875q-1.02099609375,0.298828125-1.680908203125,1.033447265625t-1.07080078125,1.730712890625t-0.585205078125,2.0419921875t-0.17431640625,1.96728515625z M154.12541503906,118.20361328125q0-0.92138671875,0.037353515625-2.701904296875t0.261474609375-3.623291015625t0.734619140625-3.3369140625t1.531494140625-1.91748046875q0.2490234375-0.099609375,0.809326171875-0.17431640625t1.12060546875-0.0498046875t0.99609375,0.19921875t0.435791015625,0.6474609375q0,0.099609375-0.099609375,0.27392578125t-0.52294921875,0.5478515625q-0.77197265625,2.1416015625-0.9462890625,4.25830078125t-0.17431640625,4.35791015625q0,1.31982421875,0.087158203125,2.6396484375t0.286376953125,2.66455078125q0.3984375-0.57275390625,0.809326171875-1.71826171875t0.87158203125-2.502685546875t0.9462890625-2.751708984375t1.095703125-2.5400390625t1.3447265625-1.892578125t1.656005859375-0.7470703125q1.02099609375,0,1.705810546875,1.282470703125t1.27001953125,2.96337890625t1.095703125,3.41162109375t1.232666015625,2.652099609375q0.3486328125-0.3486328125,0.560302734375-0.908935546875t0.336181640625-1.207763671875t0.1494140625-1.282470703125t0.02490234375-1.083251953125q0-1.12060546875-0.336181640625-2.427978515625t-0.709716796875-2.452880859375t-0.709716796875-1.929931640625t-0.336181640625-0.908935546875q0-0.19921875,0.211669921875-0.32373046875t0.485595703125-0.19921875t0.560302734375-0.099609375t0.435791015625-0.02490234375q0.92138671875,0,1.581298828125,1.02099609375t1.0458984375,2.36572265625t0.560302734375,2.726806640625t0.17431640625,2.154052734375q0,0.97119140625-0.1494140625,2.06689453125t-0.560302734375,2.029541015625t-1.207763671875,1.556396484375t-2.01708984375,0.62255859375q-1.46923828125,0-2.41552734375-0.82177734375t-1.531494140625-1.9921875t-0.92138671875-2.552490234375t-0.635009765625-2.502685546875q-0.57275390625,1.31982421875-1.0458984375,3.3369140625t-1.1953125,3.95947265625t-1.8427734375,3.31201171875t-2.91357421875,1.36962890625t-2.552490234375-0.884033203125t-1.207763671875-2.427978515625l0.0498046875,0.0498046875q-0.298828125-1.12060546875-0.385986328125-2.2412109375t-0.087158203125-2.2412109375z M179.86622070312,116.3359375l0-0.72216796875q0-0.896484375,0.0498046875-1.693359375q0.0498046875-1.12060546875,0.0498046875-1.8427734375q0-0.3984375,0.0498046875-0.908935546875t0.2490234375-0.809326171875q0.2490234375-0.2490234375,0.585205078125-0.510498046875t0.734619140625-0.261474609375q1.27001953125,0,1.9921875,0.286376953125t0.77197265625,1.182861328125l0.099609375,0.77197265625q0.4482421875-1.07080078125,1.1953125-2.652099609375t1.730712890625-3.01318359375t2.21630859375-2.4404296875t2.602294921875-1.008544921875q1.27001953125,0,2.091796875,1.1953125t1.307373046875,3.050537109375t0.684814453125,4.1337890625t0.27392578125,4.469970703125t0.099609375,3.996826171875t0.17431640625,2.726806640625q0.099609375,0.77197265625,0.336181640625,1.631103515625t0.236572265625,1.581298828125q0,0.19921875-0.286376953125,0.385986328125t-0.610107421875,0.311279296875t-0.659912109375,0.19921875t-0.485595703125,0.07470703125q-0.97119140625,0-1.382080078125-1.456787109375t-0.510498046875-3.648193359375t-0.099609375-4.743896484375t-0.17431640625-4.743896484375t-0.709716796875-3.648193359375t-1.705810546875-1.506591796875q-1.07080078125,0-2.21630859375,1.382080078125t-1.96728515625,3.673095703125q-0.796875,2.291015625-1.095703125,5.20458984375q-0.099609375,0.92138671875-0.099609375,1.8427734375q0,2.01708984375,0.42333984375,4.0341796875q0.0498046875,0.3486328125-0.286376953125,0.52294921875t-0.834228515625,0.27392578125t-1.008544921875,0.12451171875t-0.784423828125,0.02490234375q-0.97119140625,0-1.556396484375-0.684814453125t-0.908935546875-1.755615234375t-0.435791015625-2.403076171875t-0.136962890625-2.627197265625z M212.1979296875,117.55615234375q0-5.40380859375,0.485595703125-10.820068359375t2.029541015625-10.670654296875q0.4482421875-1.56884765625,1.17041015625-3.100341796875t1.76806640625-2.726806640625t2.490234375-1.9423828125t3.4365234375-0.7470703125l0.52294921875,0.0498046875q2.1416015625,0.298828125,3.16259765625,1.730712890625t1.02099609375,3.573486328125q0,0.57275390625-0.136962890625,1.431884765625t-0.435791015625,1.656005859375t-0.809326171875,1.357177734375t-1.282470703125,0.560302734375q-0.3486328125-0.0498046875-0.635009765625-0.12451171875t-0.535400390625-0.32373046875q0.3984375-0.87158203125,0.709716796875-1.81787109375t0.311279296875-2.16650390625q0-0.4482421875-0.07470703125-1.1455078125t-0.286376953125-1.382080078125t-0.560302734375-1.1953125t-0.97119140625-0.510498046875q-1.56884765625,0-2.6396484375,1.755615234375t-1.79296875,4.482421875t-1.07080078125,6.0263671875t-0.535400390625,6.375t-0.211669921875,5.55322265625t-0.02490234375,3.498779296875q0,1.1953125-0.02490234375,2.6396484375l0,0.32373046875q0.02490234375,1.27001953125,0.17431640625,2.41552734375q0.19921875,1.294921875,0.77197265625,2.2412109375t1.79296875,1.095703125q0.37353515625,0.0498046875,0.72216796875,0.0498046875q1.4443359375,0,2.61474609375-0.82177734375q1.4443359375-1.02099609375,2.56494140625-2.652099609375t1.9921875-3.5859375t1.606201171875-3.697998046875t1.431884765625-2.888671875t1.4443359375-1.1455078125q0.2490234375,0,0.7470703125,0.099609375t0.498046875,0.47314453125q0,0.099609375-0.0498046875,0.27392578125t-0.12451171875,0.27392578125q-0.67236328125,2.6396484375-1.705810546875,5.478515625t-2.6396484375,5.167236328125t-3.9345703125,3.797607421875t-5.590576171875,1.46923828125q-2.3408203125,0-3.797607421875-0.884033203125t-2.2412109375-2.36572265625t-1.07080078125-3.349365234375t-0.286376953125-3.78515625z M238.73561035156,116.21142578125q0-1.693359375,0.460693359375-3.26220703125t1.382080078125-2.801513671875t2.303466796875-1.96728515625t3.199951171875-0.734619140625q1.12060546875,0,2.477783203125,0.336181640625t2.552490234375,0.99609375t1.9921875,1.680908203125t0.796875,2.3408203125q0,0.62255859375-0.211669921875,0.9462890625t-0.859130859375,0.32373046875l-0.27392578125-0.0498046875q0.72216796875,1.9423828125,1.2451171875,3.984375t1.02099609375,4.083984375q0.19921875,0.3984375,0.298828125,0.709716796875t0.099609375,0.610107421875q0,0.3984375-0.22412109375,0.659912109375t-0.585205078125,0.385986328125t-0.7470703125,0.17431640625t-0.684814453125,0.0498046875q-1.07080078125,0-1.606201171875-0.37353515625t-0.77197265625-1.02099609375t-0.286376953125-1.456787109375t-0.19921875-1.631103515625q-0.298828125,0.97119140625-0.784423828125,1.892578125t-1.1455078125,1.656005859375t-1.556396484375,1.17041015625t-2.01708984375,0.435791015625q-1.6435546875,0-2.76416015625-0.9462890625t-1.805419921875-2.328369140625t-0.99609375-2.950927734375t-0.311279296875-2.91357421875z M242.27174316406,115.86279296875q0,0.92138671875,0.12451171875,1.9423828125t0.410888671875,2.01708984375t0.734619140625,1.880126953125t1.12060546875,1.556396484375q1.22021484375-1.31982421875,1.805419921875-3.21240234375t1.0458984375-3.648193359375t1.0458984375-3.01318359375t1.805419921875-1.257568359375q0.77197265625,0,1.294921875,0.27392578125q-0.2490234375-0.62255859375-0.82177734375-1.207763671875t-1.282470703125-1.07080078125t-1.46923828125-0.796875t-1.431884765625-0.311279296875q-0.19921875,0-0.460693359375,0.062255859375t-0.410888671875,0.012451171875q-1.02099609375,0.298828125-1.680908203125,1.033447265625t-1.07080078125,1.730712890625t-0.585205078125,2.0419921875t-0.17431640625,1.96728515625z M260.31772460937,109.23876953125q0-1.02099609375,0.361083984375-1.71826171875t1.531494140625-0.697265625q0.4482421875,0,1.12060546875,0.136962890625t0.77197265625,0.684814453125q0.2490234375,1.46923828125,0.27392578125,3.1875t0.17431640625,3.2373046875q0.57275390625-1.12060546875,1.46923828125-2.41552734375t2.0419921875-2.390625t2.490234375-1.81787109375t2.7392578125-0.72216796875q0.099609375,0,0.37353515625,0.07470703125t0.510498046875,0.211669921875t0.286376953125,0.311279296875t-0.27392578125,0.32373046875q-0.099609375,0.298828125-0.42333984375,0.361083984375t-0.57275390625,0.062255859375q-0.1494140625,0-0.47314453125-0.12451171875q-1.8427734375,0.97119140625-3.1376953125,2.6396484375t-2.11669921875,3.697998046875t-1.1953125,4.283203125t-0.37353515625,4.395263671875q0,1.07080078125-0.485595703125,1.294921875t-1.556396484375,0.22412109375q-0.57275390625,0-1.207763671875-0.12451171875t-0.884033203125-0.796875q-0.4482421875-1.41943359375-0.734619140625-3.26220703125t-0.435791015625-3.797607421875t-0.211669921875-3.847412109375t-0.062255859375-3.41162109375z M278.01507324219,117.232421875q0-1.7431640625,0.385986328125-4.10888671875t1.307373046875-4.482421875t2.427978515625-3.598388671875t3.797607421875-1.481689453125q2.1416015625,0,3.21240234375,1.232666015625t1.07080078125,3.324462890625q0,1.36962890625-0.510498046875,3.000732421875t-1.456787109375,3.087890625t-2.2412109375,2.427978515625t-2.888671875,0.97119140625l-0.6474609375-0.0498046875q0,0.67236328125,0.19921875,1.805419921875t0.585205078125,2.253662109375t0.99609375,1.96728515625t1.481689453125,0.8466796875q1.27001953125,0,2.4404296875-1.02099609375t2.21630859375-2.26611328125t1.9423828125-2.26611328125t1.6435546875-1.02099609375q0.3984375,0,0.82177734375,0.12451171875t0.47314453125,0.697265625q0,0.3486328125-0.186767578125,0.57275390625t-0.336181640625,0.498046875q-0.77197265625,1.31982421875-1.680908203125,2.51513671875t-2.054443359375,2.16650390625t-2.502685546875,1.531494140625t-3.000732421875,0.560302734375q-2.1416015625,0-3.56103515625-0.759521484375t-2.291015625-2.0419921875t-1.257568359375-2.96337890625t-0.385986328125-3.523681640625z M282.47259277344,115.33984375l0.697265625,0.62255859375q0.498046875,0.4482421875,0.99609375,0.19921875t0.896484375-0.908935546875t0.734619140625-1.631103515625t0.59765625-1.9921875t0.385986328125-1.9921875t0.12451171875-1.61865234375l0-0.8466796875t-0.07470703125-0.896484375t-0.261474609375-0.709716796875t-0.585205078125-0.361083984375q-0.12451171875-0.02490234375-0.22412109375-0.02490234375q-0.8466796875,0-1.4443359375,1.07080078125q-0.6474609375,1.1953125-1.0458984375,2.901123046875t-0.57275390625,3.498779296875t-0.22412109375,2.689453125z"/><path fill="#" d=""/></svg>
